name GIL02_fast3Moments.mot
datacolumns 7
datarows 81
range 0.09166665 0.75833333
endheader

                time	          RHipMoment	          LHipMoment	         RKneeMoment	         LKneeMoment	        RAnkleMoment	        LAnkleMoment	
          0.09166665	        587.46667480	       -436.79260254	        311.94683838	         90.25595856	          1.20383048	        -79.45972443	
          0.09999998	        546.27911377	       -439.44726563	        340.85888672	        119.74844360	         21.03502655	        -79.57089996	
          0.10833331	        507.65045166	       -444.61187744	        349.56863403	        148.85530090	         45.42162323	        -74.20529938	
          0.11666664	        474.33947754	       -439.14743042	        342.36160278	        170.77317810	         80.80982971	        -64.38130188	
          0.12499999	        442.96447754	       -414.88647461	        326.12152100	        181.30851746	        128.18099976	        -51.90713120	
          0.13333331	        384.61917114	       -372.26776123	        319.27923584	        180.39196777	        179.97279358	        -38.99888229	
          0.14166665	        313.31527710	       -319.39859009	        322.13943481	        171.74432373	        235.08769226	        -27.71089935	
          0.14999998	        242.09567261	       -267.04592896	        332.48074341	        160.77722168	        293.75592041	        -19.46675301	
          0.15833332	        199.36970520	       -223.12422180	        332.82885742	        151.86871338	        352.86093140	        -14.76893616	
          0.16666666	        220.38276672	       -189.83265686	        301.37460327	        146.55326843	        412.95675659	        -13.16237354	
          0.17499998	        236.72114563	       -164.28527832	        267.42544556	        143.43414307	        468.87014771	        -13.55747795	
          0.18333331	        197.97534180	       -142.05191040	        249.24562073	        139.72933960	        518.37048340	        -14.72049522	
          0.19166665	        133.62847900	       -120.54753876	        231.66923523	        133.32180786	        561.71990967	        -15.68427849	
          0.19999999	         74.96825409	        -99.44060516	        206.25950623	        123.76466370	        597.59515381	        -15.98297691	
          0.20833331	         46.98802567	        -79.25104523	        168.39595032	        112.18706512	        625.84973145	        -15.63483524	
          0.21666665	         52.46503067	        -59.95479584	        120.30847168	        100.45263672	        647.10705566	        -14.94226074	
          0.22499998	         72.88825989	        -40.18404770	         71.73337555	         89.78283691	        662.09295654	        -14.28838253	
          0.23333332	         76.77318573	        -17.84010887	         35.25031281	         80.04407501	        671.36126709	        -13.94651413	
          0.24166664	         55.84134293	          8.54859638	         10.77050209	         70.05606842	        676.15802002	        -13.97802162	
          0.24999999	          6.97985268	         38.42219925	         -5.03437090	         58.42848206	        678.18933105	        -14.27901745	
          0.25833333	        -60.63367081	         68.02561951	        -20.24347305	         44.68964005	        679.64373779	        -14.65682602	
          0.26666665	       -144.72096252	         91.50734711	        -33.96700287	         29.60343933	        680.20050049	        -14.92387962	
          0.27499998	       -226.31668091	        104.17626190	        -51.60025024	         14.36208916	        681.14324951	        -14.99030972	
          0.28333330	       -285.47384644	        105.25531006	        -77.42278290	         -0.32348105	        682.86126709	        -14.86083984	
          0.29166663	       -315.98944092	         98.69107056	       -109.59622192	        -14.78287029	        686.27593994	        -14.56611061	
          0.29999998	       -313.04421997	         90.95142365	       -147.94929504	        -30.02658463	        691.51202393	        -14.07936478	
          0.30833331	       -302.27111816	         87.74733734	       -179.68106079	        -46.97045898	        701.91900635	        -13.28863430	
          0.31666666	       -297.51531982	         93.02150726	       -201.85754395	        -66.25579834	        720.45428467	        -12.06403923	
          0.32499999	       -284.29904175	        108.88779449	       -225.64410400	        -88.17454529	        748.26098633	        -10.35037136	
          0.33333331	       -283.21548462	        135.82315063	       -243.64367676	       -112.65281677	        785.06518555	         -8.21922493	
          0.34166664	       -309.49066162	        174.38722229	       -250.17204285	       -139.97630310	        831.96643066	         -5.90356207	
          0.34999999	       -361.91174316	        226.02439880	       -244.96185303	       -171.06515503	        886.57916260	         -3.79281735	
          0.35833332	       -414.89102173	        292.34445190	       -237.61315918	       -207.29786682	        945.13305664	         -2.33182979	
          0.36666664	       -458.63360596	        372.69760132	       -231.31210327	       -249.53080750	       1006.06311035	         -1.81043744	
          0.37499997	       -491.17794800	        460.49990845	       -226.34178162	       -296.36761475	       1070.08459473	         -2.13538909	
          0.38333333	       -527.66510010	        544.60028076	       -214.37121582	       -344.41232300	       1136.91650391	         -2.79296589	
          0.39166665	       -576.51330566	        613.57232666	       -192.41094971	       -389.22244263	       1210.36682129	         -3.04326868	
          0.39999998	       -636.91070557	        660.13189697	       -161.14546204	       -426.52346802	       1290.44128418	         -2.25728440	
          0.40833330	       -700.68634033	        682.53674316	       -123.24765778	       -452.90017700	       1372.97094727	         -0.22211511	
          0.41666666	       -752.93902588	        684.11102295	        -86.97227478	       -466.16790771	       1455.92675781	          2.67663217	
          0.42499998	       -822.61663818	        670.90179443	        -37.32648087	       -465.44381714	       1535.03649902	          5.49308538	
          0.43333331	       -897.97479248	        650.14971924	         21.38802910	       -452.05319214	       1601.96496582	          6.96869278	
          0.44166663	       -950.13189697	        624.19085693	         74.61333466	       -427.48989868	       1651.41979980	          6.01805544	
          0.44999999	       -994.69500732	        588.35388184	        129.34860229	       -392.39904785	       1677.76220703	          2.20876098	
          0.45833331	      -1038.46838379	        534.54809570	        187.53298950	       -347.05435181	       1677.60131836	         -3.98834062	
          0.46666664	      -1076.13867188	        458.93139648	        245.64651489	       -293.08193970	       1649.88366699	        -11.29597092	
          0.47499999	      -1089.84118652	        480.78274536	        294.97177124	       -301.39440918	       1593.16296387	         26.61849403	
          0.48333332	      -1081.02087402	        487.65066528	        336.47424316	       -304.35888672	       1506.15039063	         91.10999298	
          0.49166664	      -1061.96325684	        436.00753784	        376.10943604	       -265.46514893	       1387.24047852	        155.75115967	
          0.49999997	      -1018.12841797	        743.32641602	        404.50036621	       -392.30703735	       1233.84106445	        247.67066956	
          0.50833333	       -907.02233887	       1056.14428711	        394.43688965	       -481.77420044	       1045.65478516	        333.45895386	
          0.51666665	       -764.67687988	       1090.91833496	        354.86224365	       -379.50494385	        827.40948486	        366.73718262	
          0.52499998	       -598.55639648	        903.65649414	        276.31271362	       -185.27928162	        591.89959717	        372.49102783	
          0.53333330	       -462.34243774	        738.37207031	        177.39035034	        -45.79959488	        360.12893677	        376.46578979	
          0.54166663	       -663.98803711	        669.15899658	        255.68830872	         43.35239029	        149.68994141	        378.63253784	
          0.54999995	       -727.57507324	        779.32751465	        285.53811646	         48.99205780	         35.95306778	        387.75350952	
          0.55833328	       -715.56427002	        869.91973877	        287.08639526	         50.12659073	        -29.30527115	        392.01879883	
          0.56666660	       -672.21826172	        797.72692871	        264.58151245	         99.13523865	        -71.20894623	        385.73516846	
          0.57499999	       -677.84222412	        661.79144287	        268.85531616	        155.86518860	        -99.04869080	        369.44064331	
          0.58333331	       -592.25823975	        568.01928711	        219.89244080	        184.48408508	        -96.46614838	        349.90151978	
          0.59166664	       -496.70907593	        539.45776367	        169.68991089	        177.53106689	        -77.61529541	        345.19012451	
          0.59999996	       -530.93658447	        522.33367920	        215.61363220	        154.96421814	        -71.47918701	        372.02514648	
          0.60833329	       -536.34271240	        474.99011230	        249.02316284	        144.08714294	        -62.04000473	        415.50897217	
          0.61666667	       -513.58776855	        435.73089600	        267.15219116	        134.26379395	        -51.03162384	        462.91452026	
          0.62500000	       -470.39288330	        434.00823975	        270.36965942	        113.45623016	        -40.25938034	        510.99462891	
          0.63333333	       -419.11175537	        453.84570313	        262.19000244	         83.70377350	        -31.12798309	        558.39630127	
          0.64166665	       -370.41513062	        464.84936523	        247.51341248	         50.18415833	        -24.31223106	        603.25695801	
          0.64999998	       -327.56793213	        446.86279297	        229.99990845	         20.91518974	        -19.69667244	        644.55273438	
          0.65833330	       -287.88397217	        395.60534668	        211.13157654	         -0.14465176	        -16.71137810	        679.67352295	
          0.66666663	       -247.43414307	        330.04254150	        190.91133118	        -16.93542099	        -14.77987576	        709.22509766	
          0.67499995	       -204.77793884	        269.52096558	        169.61917114	        -33.65159988	        -13.51761818	        733.10986328	
          0.68333334	       -161.06872559	        219.72337341	        148.38992310	        -48.74508667	        -12.74999237	        749.27453613	
          0.69166666	       -119.67533875	        189.05050659	        128.76879883	        -65.88356781	        -12.43869305	        757.94927979	
          0.69999999	        -84.92346954	        173.76446533	        112.00067902	        -84.70565796	        -12.58909035	        759.39556885	
          0.70833331	        -59.59175873	        162.53901672	         98.43219757	       -103.08264923	        -13.18399906	        755.86114502	
          0.71666664	        -43.35286713	        134.82987976	         86.89456940	       -115.33142853	        -14.11576748	        747.98400879	
          0.72499996	        -33.27492523	         94.47181702	         75.02265930	       -126.12145996	        -15.22390556	        737.93273926	
          0.73333329	        -25.27179146	         45.96790314	         60.13763809	       -141.84809875	        -16.37781143	        730.50115967	
          0.74166667	        -16.04379654	         13.29061699	         40.67337036	       -171.23812866	        -17.47561264	        725.59368896	
          0.75000000	         -3.73175383	        -47.55480576	         17.24338913	       -190.15809631	        -18.42941093	        718.89770508	
          0.75833333	         11.91997337	       -126.52894592	         -7.76388073	       -200.74848938	        -19.15432930	        710.66027832	
